<svg xmlns="http://www.w3.org/2000/svg" width="160" height="40" fill="none"><path fill-rule="evenodd" clip-rule="evenodd" d="M158.151 20.712c-1.92.57-3.434 2.004-4.037 3.819H5.886c-.603-1.815-2.118-3.249-4.035-3.82V5.57C3.768 5 5.283 3.567 5.886 1.75h148.228c.603 1.817 2.117 3.25 4.037 3.821v15.141zM155.683 0H4.317c0 2.256-1.934 4.087-4.317 4.087v18.108c2.383 0 4.317 1.83 4.317 4.085h151.366c0-2.255 1.934-4.085 4.317-4.085V4.087c-2.383 0-4.317-1.83-4.317-4.087z" fill="#552F1D"/><path fill-rule="evenodd" clip-rule="evenodd" d="M30.548 9.332a.675.675 0 00.098-.328c0-.338-.201-.627-.607-.874-.365-.226-.735-.339-1.11-.339a2.13 2.13 0 00-1.122.32c-.4.246-.6.544-.6.893a.59.59 0 00.087.328l1.84 2.872 1.414-2.872zm-4.995 7.832l-4.79-6.797a31.63 31.63 0 00-.836-1.266c-.625-.874-1.433-1.31-2.428-1.31v-.515h17.413v.515c-1.522 0-2.612.664-3.264 1.987l-3.916 7.973c-.185.377-.401.69-.653.936a3.15 3.15 0 01-2.3.948h-.316c-1.042 0-1.944-.165-2.697-.495-.682-.302-1.414-.824-2.199-1.564l1.492-2.399c.284.747.718 1.492 1.306 2.234.237.302.546.555.925.76.413.23.805.338 1.173.33.424-.006.71-.03.862-.071a1.29 1.29 0 00.708-.493l-.48-.773zm25.88-.768v-2.574H47.08v2.574c0 .536.232 1.03.695 1.485.392.384.885.679 1.482.887.594-.209 1.086-.503 1.48-.887.463-.455.694-.948.694-1.485zm0-3.604v-2.574c0-.534-.232-1.028-.696-1.483a3.924 3.924 0 00-1.479-.884 3.905 3.905 0 00-1.482.884c-.463.455-.695.949-.695 1.483v2.574h4.351zm9.794 6.693h-23.94v-.514c.693 0 1.386-.234 2.076-.7.792-.536 1.187-1.16 1.187-1.875v-6.178c0-.72-.392-1.344-1.176-1.872-.695-.469-1.394-.702-2.088-.702V7.13h23.94v.515c-.694 0-1.39.233-2.078.702-.79.535-1.186 1.16-1.186 1.872v6.178c0 .723.391 1.346 1.175 1.876.698.465 1.395.7 2.09.7v.513zm13.83-9.414v6.18c0 .605.224 1.13.682 1.575.327.322.828.484 1.504.484.657 0 1.152-.162 1.479-.484.458-.453.684-.977.684-1.576v-6.179c0-.535-.23-1.03-.693-1.483-.394-.384-.889-.679-1.482-.885-.594.206-1.087.501-1.48.885-.464.453-.695.948-.695 1.483zM65.26 6.982h23.941v.515c-.697 0-1.393.234-2.088.7-.783.53-1.175 1.153-1.175 1.874v5.664c0 .714.395 1.34 1.186 1.874.69.469 1.382.701 2.077.701h.416v5.251h-.546c-1.646-2.053-3.641-3.46-5.984-4.223H65.26v-.514c.697 0 1.392-.234 2.09-.701.783-.528 1.175-1.152 1.175-1.873v-6.179c0-.713-.397-1.338-1.184-1.874-.692-.466-1.384-.7-2.08-.7v-.515zm42.08 10.75c.456-.445.684-.94.684-1.482V11.76l-4.353 4.16v.329c0 .536.231 1.03.696 1.483.393.385.885.679 1.478.885.604-.212 1.102-.507 1.495-.885zm-3.669-3.273l4.353-4.119v-.27c0-.534-.231-1.03-.698-1.481-.391-.385-.884-.68-1.481-.885-.593.205-1.085.5-1.478.885-.465.451-.696.947-.696 1.481v4.39zm10.881 1.79c0 .722.394 1.346 1.177 1.873.696.467 1.393.702 2.088.702v.515h-23.94v-.515c.696 0 1.388-.235 2.077-.702.792-.535 1.185-1.158 1.185-1.872v-6.18c0-.72-.39-1.344-1.173-1.873-.698-.466-1.393-.7-2.09-.7v-.515h23.941v.515c-.695 0-1.387.234-2.077.7-.791.536-1.188 1.16-1.188 1.874v6.179zm16.314-4.323c.468.4 1.007.597 1.611.597h.143c.045 0 .09-.002.141-.01V7.876a1.792 1.792 0 00-.242-.013c-.669 0-1.249.233-1.741.697-.492.465-.738 1.016-.738 1.656v.101c0 .606.274 1.142.826 1.609zm-8.881 6.75c.585 0 1.052-.228 1.405-.69.27-.347.489-.863.665-1.545l.348-1.584c.422-.887 1.248-1.328 2.481-1.328v-.515c-.935 0-1.728-.271-2.373-.814-.666-.57-1.002-1.294-1.002-2.174 0-.849.319-1.579.96-2.184.268-.251.631-.483 1.091-.694.463-.209.865-.312 1.214-.312h15.783v.514c-.858 0-1.599.224-2.22.668-.699.489-1.045 1.124-1.045 1.905v6.18c0 .781.346 1.418 1.045 1.906.621.446 1.362.668 2.22.668v.516H130.04v-.516c.778 0 1.422-.246 1.942-.734.519-.493.779-1.106.779-1.84v-2.574c-.55 0-1.013.127-1.382.38a1.506 1.506 0 00-.685 1.164l-.108 1.03c-.102.933-.497 1.683-1.183 2.245-.686.563-1.524.845-2.519.845h-4.899v-.516zM13.302 13.142c0 1.279-1.096 2.316-2.45 2.316-1.35 0-2.446-1.037-2.446-2.316 0-1.28 1.096-2.317 2.447-2.317 1.353 0 2.449 1.037 2.449 2.317m138.286 0c0 1.279-1.097 2.316-2.449 2.316-1.351 0-2.447-1.037-2.447-2.316 0-1.28 1.096-2.317 2.447-2.317 1.352 0 2.449 1.037 2.449 2.317M4.832 35.777h28.414v-1.475H4.832v1.475zm121.924 0h28.413v-1.475h-28.413v1.475zm-50.855-1.768c.527-.219.89-.452 1.087-.7.199-.248.297-.545.297-.892 0-.324-.091-.583-.271-.775a.918.918 0 00-.695-.285.946.946 0 00-.692.273c-.184.182-.275.423-.275.725 0 .44.182.99.55 1.654m-.752.804c-.773.404-1.16.892-1.16 1.46 0 .437.18.894.542 1.375.36.478.81.72 1.347.72.458 0 .924-.175 1.402-.525-.357-.402-.675-.8-.958-1.193a31.129 31.129 0 01-1.173-1.837m.96-.406c.475.763.838 1.32 1.09 1.67.253.35.53.692.829 1.028.574-.672.859-1.22.859-1.643 0-.189-.07-.341-.215-.451-.141-.112-.356-.167-.641-.167h-.292v-.358h3.054v.358h-.23c-.198 0-.36.027-.489.082a1.07 1.07 0 00-.353.258c-.11.116-.24.33-.394.642a8.034 8.034 0 01-1.004 1.58c.501.485.938.727 1.311.727a.729.729 0 00.568-.255c.152-.17.255-.461.306-.876h.346c0 .646-.148 1.139-.443 1.474a1.423 1.423 0 01-1.117.504c-.253 0-.508-.06-.772-.18-.261-.122-.577-.342-.947-.66-.424.318-.804.538-1.137.66-.334.12-.69.18-1.07.18-.692 0-1.265-.209-1.717-.628a2.032 2.032 0 01-.678-1.55c0-.47.143-.894.432-1.272.286-.377.804-.75 1.55-1.123-.348-.675-.52-1.238-.52-1.688 0-.49.187-.904.561-1.247.376-.343.837-.514 1.381-.514.52 0 .93.126 1.232.378.3.253.449.589.449 1.008 0 .4-.143.763-.431 1.096-.288.329-.793.653-1.518.967M47.262 31.12a11.05 11.05 0 00-.742.064 5.6 5.6 0 00-.582.1c0 .203-.015.558-.05 1.06-.032.504-.048 1.068-.048 1.693 0 .18.003.414.006.702.003.29.01.6.019.934.006.331.015.67.024 1.017.007.347.016.666.025.955.01.29.014.534.018.733.005.197.006.317.006.357l.582.1c.214.034.454.064.718.087l.075.259a7.48 7.48 0 01-.395-.019 16.997 16.997 0 00-.577-.028 150.567 150.567 0 01-.582-.025 12.644 12.644 0 00-.414-.012c-.108 0-.282.005-.52.012l-.763.025c-.267.007-.52.016-.755.028s-.407.019-.514.019l.075-.259c.074 0 .183-.008.328-.023a42.625 42.625 0 01.459-.047c.16-.014.313-.031.456-.047.145-.017.255-.026.33-.035 0-.188.004-.439.012-.75l.024-.926.025-.807c.009-.235.012-.364.012-.386-.297-.048-.635-.09-1.014-.124a38.12 38.12 0 01-1.151-.124 16.807 16.807 0 01-1.141-.174 5.394 5.394 0 01-.99-.282 2.014 2.014 0 01-.7-.451.947.947 0 01-.265-.686v-.305c0-.138.003-.296.007-.467a28.942 28.942 0 00.005-.504v-.422c0-.217-.003-.43-.012-.633a6.062 6.062 0 00-.038-.504 2.399 2.399 0 00-.353-.06 67.439 67.439 0 01-.81-.102l-.211-.249c.09 0 .258.006.502.013l.773.024c.272.007.53.016.775.024.243.006.412.011.501.011.39 0 .726-.008 1.016-.025.287-.013.526-.03.717-.047l-.075.249c-.016 0-.13.012-.347.04l-.965.122c-.016.087-.028.24-.037.463a22.216 22.216 0 00-.012.745v.549c0 .211.001.419.006.622.006.203.006.39.006.562v.328c0 .157.124.286.365.387.245.102.552.19.928.268.377.08.787.153 1.231.219.446.066.877.145 1.289.24v-.024a28.1 28.1 0 00-.008-.634 635.173 635.173 0 01-.008-.872c-.006-.316-.012-.638-.021-.967-.008-.327-.014-.627-.018-.901-.003-.274-.01-.501-.014-.686a40.942 40.942 0 01-.004-.31 3.704 3.704 0 00-.385-.065c-.116-.01-.224-.023-.322-.034a1.01 1.01 0 01-.265-.067.555.555 0 01-.217-.15c.115 0 .218-.003.309-.006l.271-.013a9.384 9.384 0 01.287-.004h3.194l-.05.245zm4.271 3.83c.255.01.533.014.83.018.296.006.574.009.832.012.253.005.411.007.468.007 0-.016-.024-.099-.073-.247l-.187-.563a23.822 23.822 0 00-.259-.742c-.098-.271-.194-.534-.285-.792a25.278 25.278 0 00-.26-.703 5.443 5.443 0 00-.2-.468h-.011a5.284 5.284 0 00-.125.304c-.064.171-.145.381-.24.626-.094.248-.199.51-.31.791a75.107 75.107 0 00-.308.79c-.097.247-.176.46-.243.634-.067.176-.103.28-.11.31.064.009.226.016.481.023zm-3.675 3.996c-.018 0 .032-.01.147-.03.116-.018.243-.039.385-.057.14-.021.265-.04.377-.06.112-.018.161-.029.155-.029.106-.227.222-.48.345-.755.125-.277.25-.566.379-.86a56.888 56.888 0 00.75-1.818c.122-.302.258-.638.407-1.002.149-.361.295-.724.44-1.09l.42-1.054c.137-.337.255-.642.355-.907-.06-.055-.38-.109-.966-.164l-.026-.245c.115.005.323.017.625.03l1.17.039c1.04-.03 1.683-.054 1.932-.07l-.024.246c-.562.078-.875.133-.942.164.124.385.28.828.465 1.336a133.944 133.944 0 001.188 3.146c.205.51.385.958.55 1.34.19.453.354.82.49 1.102.136.281.236.469.304.562a.78.78 0 00.18.035c.111.016.23.033.363.054.133.018.307.04.522.063l.024.259-.527-.007-1.577-.027c-.067 0-.196.001-.39.004l-.626.011c-.224.003-.43.007-.626.012a25.083 25.083 0 01-.39.007l.075-.259c.076 0 .167-.005.279-.017.112-.012.228-.028.352-.046.125-.021.24-.038.353-.054.11-.017.2-.027.267-.035 0-.009-.033-.1-.094-.274a31.231 31.231 0 00-.235-.64c-.094-.25-.196-.521-.302-.815a37.48 37.48 0 00-.311-.814l-.248-.625c-.067-.168-.103-.258-.11-.265-.43 0-.882.012-1.356.035-.474.023-.976.056-1.504.095-.053.132-.108.3-.167.503-.061.203-.126.417-.187.638-.062.223-.122.442-.179.658-.058.214-.109.403-.147.567-.124.507-.187.82-.187.937.32.1.668.152 1.04.152l.074.258a12.436 12.436 0 00-.705-.033c-.273-.01-.586-.013-.943-.013-.955 0-1.52.023-1.694.07l.05-.258zm15.722-7.92c.066-.297.113-.602.148-.92.032-.315.055-.641.062-.979.266.09.492.163.682.224.19.062.343.117.458.165-.108.156-.233.38-.378.673-.144.292-.332.679-.563 1.154-.23.484-.355.738-.372.762h-.334c.059-.117.157-.478.297-1.08zm-5.212-.15c.264.004.965.03 2.104.068 1.223-.038 1.924-.064 2.106-.068l-.076.244c-.18.016-.377.042-.586.076-.212.035-.42.074-.626.11a20.58 20.58 0 00-.026.606c-.007.268-.013.58-.018.93l-.012 1.124c-.006.398-.009.792-.013 1.178-.003.386-.006.753-.006 1.096v.843l5.064-5.387v-.4a37.834 37.834 0 00-.26-.036c-.123-.014-.253-.033-.384-.051a10.831 10.831 0 00-.365-.052 2.346 2.346 0 00-.193-.026l-.085-.255c.099.021.32.04.67.05.346.012.8.028 1.36.042.058 0 .194-.005.409-.012.214-.008.44-.017.681-.024a36.505 36.505 0 00.668-.024c.206-.007.337-.01.397-.01l-.076.222-.488.07c-.21.033-.465.067-.762.106 0 .35-.018.836-.055 1.46-.037.619-.055 1.403-.055 2.349 0 .67.009 1.32.03 1.949.02.63.05 1.2.094 1.716.181.04.396.072.644.1.247.028.452.053.617.076l.075.234c-.075 0-.217-.005-.427-.011a67.434 67.434 0 00-.674-.023 31.96 31.96 0 00-.683-.02 24.786 24.786 0 00-.443-.005c-.083 0-.219.001-.404.006a24.852 24.852 0 00-.595.02 52.167 52.167 0 00-.593.022c-.185.006-.317.011-.39.011l.073-.234c.61-.072 1.014-.13 1.214-.176.008-.055.015-.205.018-.452.005-.245.01-.553.014-.924l.012-1.242a369.48 369.48 0 00.019-2.795v-1.242c-.15.227-.353.483-.608.768-.255.286-.545.588-.865.908a86.93 86.93 0 01-1.017.99 41.265 41.265 0 00-1.028 1.018c-.33.342-.637.675-.921 1.004a6.592 6.592 0 00-.688.924c.007.164.022.332.036.504.018.173.039.358.062.563.067.015.202.035.403.059.203.021.474.053.811.093l.051.257a5.123 5.123 0 00-.793-.052 67.212 67.212 0 01-1.348-.03c-.076 0-.212.001-.409.006a28.511 28.511 0 00-.638.02 57.849 57.849 0 00-.638.022c-.2.006-.326.011-.384.011l.073-.234a13.78 13.78 0 001.3-.176c.01-.398.016-.884.022-1.46a531.046 531.046 0 000-4.352c-.007-.663-.012-1.214-.021-1.652a2.85 2.85 0 00-.488-.097c-.21-.028-.473-.05-.787-.066l-.099-.267zm28.722 4.708c.033 1.881.058 2.928.074 3.138.124.065.598.137 1.424.225l.024.255c-.125-.004-.8-.03-2.03-.068l-1.646.034c-.38.007-.604.013-.67.013l.053-.234a2.54 2.54 0 01.295-.037c.115-.007.234-.017.36-.028l.358-.041a1.733 1.733 0 00.308-.07 57.133 57.133 0 00.04-1.343 134.114 134.114 0 00-.061-6.144 52.899 52.899 0 00-.486-.065 91.25 91.25 0 00-.814-.098l-.054-.223c.094 0 .238.004.433.01a144.477 144.477 0 011.233.048c.195.008.336.012.428.012.09 0 .239-.004.441-.011a183.075 183.075 0 011.249-.048c.193-.007.337-.011.43-.011l-.03.223c.01.008-.053.02-.192.035-.134.014-.283.032-.45.052-.164.018-.315.04-.449.058-.139.021-.203.04-.194.065-.009.116-.016.464-.025 1.044-.009.577-.02 1.39-.037 2.434.147-.124.41-.338.786-.643.377-.305.812-.668 1.306-1.088l.7-.604c.22-.192.412-.366.582-.522.17-.157.31-.291.421-.404.112-.113.185-.202.216-.264a16.133 16.133 0 01-.593-.106 3.705 3.705 0 00-.36-.057c0-.009-.012-.084-.037-.223.107 0 .31.007.605.017.3.01.68.017 1.153.017.075 0 .18 0 .316-.006l.427-.011c.149-.005.29-.006.428-.01a7.335 7.335 0 01.303-.007l-.1.223c-.321.045-.578.093-.768.14-.25.156-.516.34-.81.551a28.559 28.559 0 00-.886.662c-.297.23-.589.46-.878.69-.29.23-.552.444-.794.64.291.404.627.842 1.01 1.311s.771.938 1.156 1.406c.396.484.817.978 1.258 1.483.442.504.855.95 1.242 1.34l-.405.129a3.858 3.858 0 01-.603-.351 15.335 15.335 0 01-.629-.475 11.834 11.834 0 01-.619-.527 61.196 61.196 0 01-.563-.51 17.963 17.963 0 01-.403-.37c-.145-.135-.331-.31-.558-.52-.227-.212-.51-.474-.848-.792a152.212 152.212 0 01-1.262-1.19 6.21 6.21 0 00-.47.342c-.158.123-.27.219-.335.281v.223zm9.474-3.797a3.322 3.322 0 00-.83.787 2.955 2.955 0 00-.476.977 4.023 4.023 0 00-.15 1.094c0 .61.117 1.171.347 1.682.231.512.537.957.917 1.33.38.376.808.67 1.288.884.478.216.965.325 1.46.325.428 0 .848-.078 1.259-.23a3.485 3.485 0 001.094-.657c.321-.285.58-.635.775-1.054a3.37 3.37 0 00.288-1.423c0-.5-.093-1.008-.279-1.523a4.641 4.641 0 00-.778-1.389 4.157 4.157 0 00-1.197-1.009 3.047 3.047 0 00-1.521-.39c-.182 0-.36.005-.532.018a2.04 2.04 0 00-.457.076 3.527 3.527 0 00-1.208.503m2.303-1.049a10.161 10.161 0 01.376-.006c.735 0 1.399.1 1.988.3.59.197 1.092.474 1.512.825.414.353.737.768.959 1.249.222.478.334 1.002.334 1.563a4.65 4.65 0 01-.36 1.826 4.272 4.272 0 01-1.035 1.49c-.45.421-.991.753-1.626.995-.634.243-1.35.363-2.142.363a7.153 7.153 0 01-1.709-.186 5.552 5.552 0 01-1.338-.506 4.202 4.202 0 01-.994-.73 4.505 4.505 0 01-.682-.864 3.552 3.552 0 01-.39-.895 3.167 3.167 0 01-.124-.85c.025-.57.14-1.115.346-1.639a4.16 4.16 0 01.918-1.4c.401-.41.91-.748 1.521-1.014.609-.266 1.334-.434 2.167-.501a3.716 3.716 0 01.279-.02m12.915 5.162c.351-.19.652-.392.899-.615.247-.225.438-.45.573-.675.138-.226.206-.422.206-.585 0-.188-.037-.389-.112-.599a1.504 1.504 0 00-.389-.58c-.187-.175-.443-.326-.769-.45-.324-.124-.74-.195-1.245-.212-.014 0-.051.005-.103.006a.287.287 0 00-.155.066l-.026 1.088c-.006.384-.016.76-.025 1.125l-.018 1.039c-.001.323-.004.594-.004.812a4.608 4.608 0 001.168-.42zm-2.482-.366c-.008-.326-.017-.671-.024-1.035l-.026-1.114a58.55 58.55 0 01-.012-1.072 3.091 3.091 0 00-.148-.033.274.274 0 01-.087-.036c-.486.015-.883.083-1.188.204-.306.123-.548.273-.725.452-.178.18-.3.374-.364.578-.068.21-.101.41-.101.604 0 .166.066.359.194.58.127.223.308.445.538.67.231.222.513.425.842.613.328.19.7.329 1.114.422 0-.226-.004-.504-.013-.833zm-1.509-4.708h.024c.114 0 .296 0 .544.005l.775.013.753.011a19.39 19.39 0 002.222-.063l-.073.245a182.194 182.194 0 00-1.313.165l-.087-.012.051.69c1.353.008 2.375.163 3.07.462.694.301 1.039.737 1.039 1.307 0 .415-.129.79-.395 1.125-.264.336-.6.63-1.002.885-.406.254-.85.464-1.338.632a9.088 9.088 0 01-1.4.37v.045c0 .087.005.172.014.26.01.085.015.2.021.344.011.146.018.33.027.558.008.226.014.515.014.867a12.827 12.827 0 001.279.18c.131.013.227.017.291.017l.075.259c-.108 0-.277-.006-.514-.019a49.742 49.742 0 00-.753-.027c-.27-.01-.525-.017-.762-.025a16.821 16.821 0 00-.522-.013c-.089 0-.228.005-.414.013l-.612.025-.663.022c-.219.007-.402.012-.549.012l.072-.257c.1 0 .265-.012.504-.036.232-.021.455-.047.663-.07.147-.023.282-.047.406-.07l.075-2.086a9.159 9.159 0 01-1.401-.37 6.422 6.422 0 01-1.335-.631 3.878 3.878 0 01-1.005-.885 1.776 1.776 0 01-.396-1.125c0-.632.335-1.085.998-1.359.667-.272 1.698-.41 3.102-.41v-.607l-1.377-.26-.108-.187zm8.351.399a56.339 56.339 0 00-.803-.106l-.048-.223c.108 0 .288.004.539.011.252.01.52.016.805.019l.806.012a54.529 54.529 0 002.841-.031c.52-.022.808-.04.868-.058a1.05 1.05 0 00.034-.2l.05-.351.297-.045-.069.555c-.027.239-.057.531-.092.874-.033.29-.055.514-.067.679-.012.165-.022.27-.031.316l-.248-.092v-.821c-.018-.07-.131-.134-.342-.194a6.942 6.942 0 00-.759-.158 11.719 11.719 0 00-1.71-.14 76.86 76.86 0 00-.076 3.35c1.398-.032 2.251-.097 2.565-.201.057-.154.1-.322.124-.501l.273-.025c-.015.087-.067.392-.15.914l-.11.715c-.034.212-.061.398-.088.562l-.246-.082.005-.128c.004-.078.007-.165.013-.257a7.345 7.345 0 01.018-.26c.009-.076.013-.124.013-.14-.38-.179-1.183-.27-2.417-.27 0 .063.003.185.01.364.002.18.008.392.011.632l.012.786c.004.28.007.556.015.82.001.266.007.508.01.734.003.223.008.399.018.532 1.56-.024 2.552-.166 2.971-.422.034-.078.071-.202.119-.37.045-.167.097-.384.155-.65l.283-.071c-.09.439-.177.942-.259 1.513-.082.563-.131.955-.149 1.182l-.26-.048v-.701a2.609 2.609 0 00-.302-.024c-.161-.007-.355-.016-.584-.024-.226-.006-.472-.016-.736-.023l-.779-.022a36.744 36.744 0 00-.706-.019 25.66 25.66 0 00-.507-.005c-.57 0-1.037.008-1.399.03-.364.018-.619.033-.769.039l.077-.257a8.943 8.943 0 001.275-.152c0-.11 0-.277.004-.503l.014-.774c.001-.29.009-.59.018-.902.009-.313.013-.61.019-.89.002-.283.006-.53.012-.744.003-.216.006-.366.006-.452 0-1.147-.024-2.22-.073-3.223a14.603 14.603 0 00-.501-.08" fill="#552F1D"/></svg>